<svg id="Layer_1" data-name="Layer 1" xmlns="http://www.w3.org/2000/svg" viewBox="0 0 256 256"><defs><style>.cls-1,.cls-2{fill:none;}.cls-1,.cls-3{stroke:#1aa0a0;stroke-miterlimit:10;}.cls-3{fill:#1aa0a0;}</style></defs><title>icon</title><circle class="cls-1" cx="128" cy="128" r="125"/><circle class="cls-1" cx="128" cy="128" r="120"/><circle class="cls-1" cx="128" cy="128" r="100"/><circle class="cls-1" cx="128" cy="128" r="75"/><circle class="cls-2" cx="128" cy="128" r="64"/><line class="cls-1" x1="3" y1="128" x2="64" y2="128"/><line class="cls-1" x1="128" y1="3" x2="128" y2="64"/><line class="cls-1" x1="192" y1="128" x2="253" y2="128"/><line class="cls-1" x1="128" y1="253" x2="128" y2="192"/><path class="cls-3" d="M124.4,85.4326q-1.9219,0-5.58-.12-3.6621-.1179-7.74-.36-4.0811-.2394-7.9805-.6a62.6311,62.6311,0,0,1-6.3-.84,2.3542,2.3542,0,0,1-.9-1.26,5.1525,5.1525,0,0,1-.42-1.98,1.8779,1.8779,0,0,1,.96-1.68,81.22,81.22,0,0,0,10.439,2.1q5.64.7822,10.8008,1.26,5.1591.48,9.3008.6,4.14.1209,6.0586.12,4.6817,0,9.6015-.24t9.1192-.6q4.1982-.36,7.0195-.72a10.2354,10.2354,0,0,0,3.3008-.72c.1582,0,.3984.1611.7187.48a1.494,1.494,0,0,1,.4805,1.08,2.1283,2.1283,0,0,1-1.1992,1.98,9.9189,9.9189,0,0,1-3.3594.96q-2.1621.301-5.2812.42-3.12.1209-6.959.36c-.4024.081-.6016.5214-.6016,1.32a74.5067,74.5067,0,0,0,.9,9.12q.8994,6.3618,2.2812,14.4,1.377,8.04,3.1192,16.92,1.7373,8.8814,3.4805,16.7393,1.7373,7.8618,3.24,13.8008a45.9189,45.9189,0,0,0,2.58,8.1,4.45,4.45,0,0,0,1.0195.3,12.1816,12.1816,0,0,0,1.5.0605,26.1872,26.1872,0,0,0,2.6992-.12q1.14-.1187,1.74-.12.4774,0,.7207.96a6.78,6.78,0,0,1,.24,1.32.7434.7434,0,0,1-.84.84,16.5152,16.5152,0,0,1-1.6816-.12c-.7187-.0811-1.7207-.1406-3-.18q-1.9189-.063-4.9785-.1807-3.0615-.12-7.74-.12-1.5617,0-3.42.12-1.8633.1187-3.541.24c-1.1211.0791-2.1191.1591-3,.24-.8808.0781-1.48.12-1.7988.12-.24,0-.4414-.1611-.6016-.4805a2.3822,2.3822,0,0,1-.2383-1.08,2.5707,2.5707,0,0,1,.18-1.02.6581.6581,0,0,1,.66-.42q1.0781-.1187,2.8789-.1806,1.8018-.0587,1.8008-.9a43.0662,43.0662,0,0,0-.6-4.32q-.6036-3.6006-1.5-8.64-.9024-5.0406-1.92-10.74-1.0224-5.6982-1.98-10.62-2.1592-.36-5.461-.6t-6.8984-.24q-4.204,0-7.98.36a19.6387,19.6387,0,0,0-5.9414,1.3194q-.6006,2.6411-1.3183,5.58-.7208,2.9415-1.3809,5.94-.6621,3-1.1406,5.9394a34.0032,34.0032,0,0,0-.4785,5.46q0,4.9218,2.1,7.08a6.979,6.979,0,0,0,5.2187,2.16,24.1848,24.1848,0,0,0,3.9-.18,6.2114,6.2114,0,0,1,1.3809-.1806c.6387,0,.959.1621.959.48,0,.1612-.18.42-.5391.78a11.0928,11.0928,0,0,1-1.3809,1.14q-1.078.8407-2.82,2.1a7.4843,7.4843,0,0,1-4.5,1.2607c-.2383,0-.8593-.042-1.8593-.12q-1.5-.1216-3.66-.3-2.1593-.18-4.56-.3008t-4.56-.1191q-3.0007,0-4.86.1191t-2.94.24a10.2908,10.2908,0,0,0-1.5.24,2.6035,2.6035,0,0,1-.66.12c-.1592,0-.3-.1406-.42-.42a2.2677,2.2677,0,0,1-.18-.9.74.74,0,0,1,.6-.84,29.25,29.25,0,0,0,3.48-1.8,12.3382,12.3382,0,0,0,4.26-4.86,97.086,97.086,0,0,0,4.26-9.3,108.0064,108.0064,0,0,0,3.72-10.8q2.0391-6.8409,4.08-15,2.0391-8.1592,3.84-17.1,1.799-8.9378,3-17.22Zm12.24,37.32q-.6035-2.9977-1.3808-7.44-.7823-4.4377-1.6192-9.06-.8408-4.6179-1.6211-8.7-.7823-4.0781-1.26-6.24a15.8531,15.8531,0,0,0-1.26-4.08c-.3594-.5586-.74-.84-1.1406-.84q-1.2012,0-2.52,1.98a38.2648,38.2648,0,0,0-2.82,5.28,80.8353,80.8353,0,0,0-2.9394,7.56q-1.4415,4.2612-2.82,8.76t-2.52,8.94q-1.1426,4.4406-1.8613,8.04,1.9189-.4782,4.8613-1.02,2.9385-.54,6.24-1.14,3.2988-.5991,6.6-1.14Q133.8789,123.1126,136.6406,122.7524Z"/></svg>